<?xml version="1.0" encoding="UTF-8"?>
<svg id="Layer_2" data-name="Layer 2" xmlns="http://www.w3.org/2000/svg" width="88" height="68.69" viewBox="0 0 88 68.69">
  <defs>
    <style>
      .cls-1 {
        stroke-linejoin: round;
      }

      .cls-1, .cls-2 {
        stroke: #000;
        stroke-linecap: round;
        stroke-width: 3px;
      }

      .cls-2 {
        fill: none;
        stroke-miterlimit: 10;
      }
    </style>
  </defs>
  <g id="Layer_1-2" data-name="Layer 1">
    <rect x="0" y="38.69" width="88" height="5" rx="2.5" ry="2.5"/>
    <path d="M23.05,65.69h41.9c11.43-4.75,19.05-13.27,19.05-23H4c0,9.73,7.62,18.25,19.05,23Z"/>
    <rect x="22" y="63.69" width="44" height="5" rx="2.5" ry="2.5"/>
    <path class="cls-2" d="M32,14.69c-3,2-5,5-7,8-4,8-3,17-11,23"/>
    <path class="cls-2" d="M32,14.69c4,12-9,13-17,17-3,2-4,7-3,12"/>
    <path class="cls-2" d="M5.35,42.69c.17-.33,4.21-7.92,12.19-8,5.13-.05,9.91,3.01,12.46,8"/>
    <path class="cls-2" d="M9.03,39.69c.18-.25,4.44-5.94,12.84-6,5.41-.04,10.44,2.26,13.13,6"/>
    <path class="cls-2" d="M58.4,42.81c.07-.23,1.78-5.41,7-6.53,3.36-.72,6.88,.52,9.18,3.23"/>
    <path class="cls-2" d="M46.5,44.19c3.96-8.5,12.49-13.23,20.39-11.83,7.83,1.38,11.83,8.21,12.44,9.29"/>
    <path class="cls-2" d="M29.4,41.37c.16-.26,3.97-6.28,11.94-6.66,5.12-.24,9.99,1.94,12.69,5.7"/>
    <path class="cls-1" d="M45.96,17.36l-7.2-.97-7.2-.97,4.44-5.75,4.44-5.75c-.06,1.54,.03,4.38,1.39,7.57,1.25,2.92,3.03,4.84,4.13,5.87Z"/>
    <rect class="cls-1" x="46.98" y=".37" width="4.83" height="15.29" transform="translate(38.05 -40.72) rotate(67.67)"/>
    <path class="cls-2" d="M44.19,8.66c.21-.34,5.28-7.98,13.32-7.09,5.17,.57,9.58,4.45,11.49,10.11"/>
  </g>
</svg>