<?xml version="1.0" encoding="UTF-8"?>
<svg id="Layer_2" data-name="Layer 2" xmlns="http://www.w3.org/2000/svg" width="213" height="182.86" viewBox="0 0 213 182.86">
  <defs>
    <style>
      .cls-1 {
        fill: none;
        stroke-miterlimit: 10;
        stroke-width: 6px;
      }

      .cls-1, .cls-2 {
        stroke: #000;
        stroke-linecap: round;
      }

      .cls-2 {
        stroke-linejoin: round;
        stroke-width: 9px;
      }
    </style>
  </defs>
  <g id="Layer_1-2" data-name="Layer 1">
    <path d="M7,118.86c0,23.75,23,44.28,56.37,54h87.27c33.36-9.72,56.37-30.25,56.37-54H7Z"/>
    <rect x="0" y="108.86" width="213" height="11" rx="5.5" ry="5.5"/>
    <rect x="58" y="171.86" width="97" height="11" rx="5.5" ry="5.5"/>
    <path class="cls-1" d="M80,46.86c5,13,2,31-12,35-10,3-20,5-25,15-4,8-3,17,0,25"/>
    <path class="cls-1" d="M80,46.86c-15,12-16,32-22,50-2,9-7,19-16,25"/>
    <path class="cls-1" d="M27.12,116.86c5.1-10.25,15.5-16.83,26.88-17,11.72-.18,22.57,6.45,27.82,17"/>
    <path class="cls-1" d="M78.02,124.9c7.41-11.79,24.5-21.01,44.18-23.85,20.26-2.92,39.98,1.4,50.55,11.08"/>
    <path class="cls-1" d="M134.29,117.12c5.1-10.25,15.5-16.83,26.88-17,11.72-.18,22.57,6.45,27.82,17"/>
    <path class="cls-1" d="M194.52,120.06c-.4-1.36-7.35-23.88-27.93-29.51-18.97-5.19-41.49,6.18-50.6,28.31"/>
    <path class="cls-1" d="M26.87,110.25c9.2-10.35,24.94-15.18,40.7-12.48,16.22,2.78,29.82,13.08,34.87,26.41"/>
    <path class="cls-1" d="M67.62,115.56c5.1-10.25,15.5-16.83,26.88-17,11.72-.18,22.57,6.45,27.82,17"/>
    <path class="cls-2" d="M121.43,54.38l-20.55-2.73-20.55-2.73,11.32-16.78,11.32-16.78c0,3.94,.45,9.73,2.58,16.4,.51,1.6,1.45,4.49,3.23,7.85,1.84,3.48,5.53,9.28,12.65,14.76Z"/>
    <polygon class="cls-2" points="143.72 10.03 151 24.65 114.21 41.79 106.93 27.18 143.72 10.03"/>
    <path class="cls-1" d="M113.38,26.34C123.84,9.78,140.91,.91,157.53,3.42c17.1,2.58,30.94,16.79,35.47,36.44"/>
  </g>
</svg>