<svg xmlns="http://www.w3.org/2000/svg" width="141" height="141" viewBox="0 0 141 141">
  <g id="Subtraction_1" data-name="Subtraction 1" transform="translate(-4.243 -4.243)" fill="rgba(255,255,255,0)" opacity="0.8">
    <path d="M 74.74228668212891 141.242919921875 C 66.75554656982422 141.242919921875 58.94746398925781 139.8430786132812 51.53491973876953 137.0822601318359 C 45.73450088500977 134.9218902587891 40.29781723022461 131.9776000976562 35.32172393798828 128.3058929443359 L 128.3058929443359 35.32172393798828 C 131.9776153564453 40.2978515625 134.9219360351562 45.73455429077148 137.0822601318359 51.53491973876953 C 139.8430786132812 58.94746398925781 141.242919921875 66.75554656982422 141.242919921875 74.74228668212891 C 141.242919921875 83.72163391113281 139.4852294921875 92.43026733398438 136.0186614990234 100.6262435913086 C 132.6695251464844 108.5445709228516 127.8740692138672 115.6568298339844 121.7654647827148 121.7654876708984 C 115.6568298339844 127.8740692138672 108.5445709228516 132.6695251464844 100.6262435913086 136.0186614990234 C 92.43026733398438 139.4852294921875 83.72163391113281 141.242919921875 74.74228668212891 141.242919921875 Z M 21.18001747131348 114.1634292602539 C 17.50832939147949 109.188102722168 14.56386089324951 103.7513732910156 12.40328884124756 97.95026397705078 C 9.642462730407715 90.53739929199219 8.24261474609375 82.72909545898438 8.24261474609375 74.74228668212891 C 8.24261474609375 65.76318359375 10.00031089782715 57.05474472045898 13.46685409545898 48.8588752746582 C 16.81600570678711 40.94063568115234 21.61144065856934 33.82848358154297 27.71996307373047 27.71998405456543 C 33.82848358154297 21.61144065856934 40.94063568115234 16.81600570678711 48.8588981628418 13.46685409545898 C 57.05474472045898 10.00031089782715 65.76318359375 8.24261474609375 74.74228668212891 8.24261474609375 C 82.72909545898438 8.24261474609375 90.53739929199219 9.642462730407715 97.95028686523438 12.40328884124756 C 103.7507400512695 14.563645362854 109.1875381469727 17.50796699523926 114.1637496948242 21.17969512939453 L 21.18001747131348 114.1634292602539 Z" stroke="none"/>
    <path d="M 74.74229431152344 137.242919921875 C 83.18339538574219 137.242919921875 91.36776733398438 135.5915374755859 99.06805419921875 132.3346405029297 C 106.5096130371094 129.1871643066406 113.1945037841797 124.679557800293 118.9370269775391 118.9370574951172 C 124.679557800293 113.1945037841797 129.1871643066406 106.5096130371094 132.3346405029297 99.06808471679688 C 135.5915374755859 91.36776733398438 137.242919921875 83.18339538574219 137.242919921875 74.74229431152344 C 137.242919921875 67.23381805419922 135.9277191162109 59.89545059204102 133.3338165283203 52.9310302734375 C 131.8502197265625 48.94765472412109 129.9724426269531 45.14584350585938 127.7220458984375 41.56238555908203 L 41.5623893737793 127.722038269043 C 45.14585113525391 129.9724426269531 48.94766998291016 131.8502197265625 52.9310302734375 133.3338165283203 C 59.89545059204102 135.9277191162109 67.23381805419922 137.242919921875 74.74229431152344 137.242919921875 M 21.76362228393555 107.9230194091797 L 107.9230728149414 21.76356506347656 C 104.3395690917969 19.51316833496094 100.5376968383789 17.63538360595703 96.55423736572266 16.15176773071289 C 89.5894775390625 13.55784606933594 82.25086975097656 12.24260902404785 74.74229431152344 12.24260902404785 C 66.30139923095703 12.24260902404785 58.11724090576172 13.89397811889648 50.41713714599609 17.15084648132324 C 42.97571563720703 20.29832077026367 36.29089736938477 24.8059253692627 30.54839897155762 30.54837226867676 C 24.8059253692627 36.29089736938477 20.29832077026367 42.97571563720703 17.15084648132324 50.41711044311523 C 13.89397811889648 58.11724090576172 12.24260902404785 66.30139923095703 12.24260902404785 74.74229431152344 C 12.24260902404785 82.25086975097656 13.55784606933594 89.5894775390625 16.15176773071289 96.55419158935547 C 17.63544273376465 100.5378189086914 19.51287460327148 104.3391036987305 21.76362228393555 107.9230194091797 M 74.74229431152344 145.242919921875 C 66.27737426757812 145.242919921875 57.99958419799805 143.7584533691406 50.13882064819336 140.8307189941406 C 42.54395294189453 138.0020294189453 35.53747940063477 133.9061126708984 29.31400489807129 128.65673828125 L 128.65673828125 29.31400489807129 C 133.906982421875 35.53850555419922 138.0023956298828 42.54495239257812 140.8307189941406 50.13882064819336 C 143.7584533691406 57.99958419799805 145.242919921875 66.27737426757812 145.242919921875 74.74229431152344 C 145.242919921875 84.25984954833984 143.3789215087891 93.49271392822266 139.7026824951172 102.1844482421875 C 136.1518707275391 110.5796127319336 131.0685272216797 118.1192398071289 124.5939025878906 124.5939025878906 C 118.1192398071289 131.0685272216797 110.5796127319336 136.1518707275391 102.1844482421875 139.7026824951172 C 93.49271392822266 143.3789215087891 84.25984954833984 145.242919921875 74.74229431152344 145.242919921875 Z M 20.82881927490234 120.171501159668 L 20.8273983001709 120.1701126098633 L 20.82816123962402 120.169319152832 C 15.57903003692627 113.9471893310547 11.48337268829346 106.9408721923828 8.65484619140625 99.34637451171875 C 5.727109432220459 91.48534393310547 4.24260950088501 83.20734405517578 4.24260950088501 74.74229431152344 C 4.24260950088501 65.22495269775391 6.106609344482422 55.99224090576172 9.782819747924805 47.30068969726562 C 13.33366203308105 38.90563583374023 18.41697692871094 31.36613655090332 24.89153099060059 24.89153099060059 C 31.36613655090332 18.41697692871094 38.90563583374023 13.33366203308105 47.30068969726562 9.782819747924805 C 55.99224090576172 6.106609344482422 65.22495269775391 4.24260950088501 74.74229431152344 4.24260950088501 C 83.20734405517578 4.24260950088501 91.48534393310547 5.727109432220459 99.34637451171875 8.65484619140625 C 106.9413452148438 11.48355674743652 113.9479522705078 15.57945156097412 120.171501159668 20.82881927490234 L 20.82881927490234 120.171501159668 Z" stroke="none" fill="#000"/>
  </g>
</svg>
