<svg xmlns="http://www.w3.org/2000/svg" width="29.642" height="32" viewBox="0 0 29.642 32">
  <g id="trashcan" transform="translate(-0.25 -4.609)">
    <path id="Path" d="M10.975-.641C10.182-.641,9.562.8,9.562,1.416V2.525H1.434A1.3,1.3,0,0,0,0,3.634,1.3,1.3,0,0,0,1.434,4.743H28.208a1.3,1.3,0,0,0,1.434-1.109,1.3,1.3,0,0,0-1.434-1.109H20.08V1.416c0-.612-.664-2.056-1.456-2.056Z" transform="translate(0.25 5.25)" fill="#2d2d2d"/>
    <path id="Path-2" data-name="Path" d="M1.109,0A1.109,1.109,0,0,1,2.218,1.109V11.46A1.109,1.109,0,1,1,0,11.46V1.109A1.109,1.109,0,0,1,1.109,0Z" transform="translate(10.044 17.88)" fill="#2d2d2d"/>
    <path id="Path-3" data-name="Path" d="M2.218,1.109A1.109,1.109,0,1,0,0,1.109V11.46a1.109,1.109,0,1,0,2.218,0Z" transform="translate(17.88 17.88)" fill="#2d2d2d"/>
    <path id="Shape" d="M12.944,22.541a72.876,72.876,0,0,1-7.477-.385C2.882,21.893.87,20.363.583,18.444l-.04-.262a48.918,48.918,0,0,1,0-14.529L.942.991A1.4,1.4,0,0,1,2.432,0H23.457a1.406,1.406,0,0,1,1.488.986l.4,2.662a48.8,48.8,0,0,1,0,14.529l-.038.262c-.287,1.917-2.3,3.445-4.876,3.711a72.88,72.88,0,0,1-7.486.39ZM3.773,2.218,3.521,3.895a47.2,47.2,0,0,0,0,14.047l.04.262a2.422,2.422,0,0,0,2.311,1.758,68.947,68.947,0,0,0,7.073.364,68.916,68.916,0,0,0,7.067-.363A2.422,2.422,0,0,0,22.328,18.2l.04-.262a47.2,47.2,0,0,0,0-14.047l-.252-1.674Z" transform="translate(2.127 14.068)" fill="#2d2d2d"/>
  </g>
</svg>
