<svg xmlns="http://www.w3.org/2000/svg" width="32.079" height="25.945" viewBox="0 0 32.079 25.945">
  <g id="favicon" transform="translate(0.079 0.014)" opacity="0.8">
    <rect id="Rectangle_5" data-name="Rectangle 5" width="32" height="1.814" rx="0.907" transform="translate(0 15.025)"/>
    <path id="Path_25" data-name="Path 25" d="M10.929,51.036h15.24c4.157-1.724,6.929-4.816,6.929-8.346H4C4,46.221,6.771,49.313,10.929,51.036Z" transform="translate(-2.548 -26.194)"/>
    <rect id="Rectangle_6" data-name="Rectangle 6" width="15.967" height="1.814" rx="0.907" transform="translate(8.016 24.117)"/>
    <path id="Path_26" data-name="Path 26" d="M20.532,14.69a9.782,9.782,0,0,0-2.54,2.9C16.54,20.5,16.9,23.762,14,25.939" transform="translate(-8.906 -8.386)" fill="none" stroke="#000" stroke-linecap="round" stroke-miterlimit="10" stroke-width="3"/>
    <path id="Path_27" data-name="Path 27" d="M19.019,14.69c1.452,4.355-3.266,4.718-6.169,6.169-1.089.726-1.452,2.54-1.089,4.355" transform="translate(-7.406 -8.387)" fill="none" stroke="#000" stroke-linecap="round" stroke-miterlimit="10" stroke-width="3"/>
    <path id="Path_28" data-name="Path 28" d="M5.35,37.593c.062-.12,1.528-2.874,4.424-2.9a5.087,5.087,0,0,1,4.522,2.9" transform="translate(-3.409 -21.118)" fill="none" stroke="#000" stroke-linecap="round" stroke-miterlimit="10" stroke-width="3"/>
    <path id="Path_29" data-name="Path 29" d="M9.03,35.867a5.975,5.975,0,0,1,4.659-2.177,5.818,5.818,0,0,1,4.765,2.177" transform="translate(-5.753 -20.483)" fill="none" stroke="#000" stroke-linecap="round" stroke-miterlimit="10" stroke-width="3"/>
    <path id="Path_30" data-name="Path 30" d="M58.4,38.521a3.662,3.662,0,0,1,2.54-2.37,3.437,3.437,0,0,1,3.331,1.172" transform="translate(-37.154 -22.003)" fill="none" stroke="#000" stroke-linecap="round" stroke-miterlimit="10" stroke-width="3"/>
    <path id="Path_31" data-name="Path 31" d="M46.5,36.5A7.082,7.082,0,0,1,53.9,32.2a6.88,6.88,0,0,1,4.514,3.371" transform="translate(-29.56 -19.48)" fill="none" stroke="#000" stroke-linecap="round" stroke-miterlimit="10" stroke-width="3"/>
    <path id="Path_32" data-name="Path 32" d="M29.4,37.115A5.572,5.572,0,0,1,33.733,34.7a5.356,5.356,0,0,1,4.605,2.068" transform="translate(-18.701 -21.121)" fill="none" stroke="#000" stroke-linecap="round" stroke-miterlimit="10" stroke-width="3"/>
    <path id="Path_33" data-name="Path 33" d="M36.786,8.8l-2.613-.352L31.56,8.093l1.611-2.087L34.782,3.92a6.3,6.3,0,0,0,2,4.877Z" transform="translate(-20.079 -1.543)" stroke="#000" stroke-linecap="round" stroke-linejoin="round" stroke-width="3"/>
    <rect id="Rectangle_7" data-name="Rectangle 7" width="1.753" height="5.549" transform="translate(20.199 1.999) rotate(67.67)" stroke="#000" stroke-linecap="round" stroke-linejoin="round" stroke-width="3"/>
    <path id="Path_34" data-name="Path 34" d="M44.19,4.1c.076-.123,1.916-2.9,4.834-2.573a5.141,5.141,0,0,1,4.17,3.669" transform="translate(-28.108 0)" fill="none" stroke="#000" stroke-linecap="round" stroke-miterlimit="10" stroke-width="3"/>
  </g>
</svg>
